<mxfile host="app.diagrams.net" modified="2024-02-05T10:21:18.852Z" agent="Mozilla/5.0 (Windows NT 10.0; Win64; x64) AppleWebKit/537.36 (KHTML, like Gecko) Chrome/120.0.0.0 Safari/537.36" etag="dBrLcpThebtLkjC9A9PM" version="22.1.22" type="github">
  <diagram name="Page-1" id="JCHEIruAJrnFE4wf-b7R">
    <mxGraphModel dx="1434" dy="738" grid="1" gridSize="10" guides="1" tooltips="1" connect="1" arrows="1" fold="1" page="1" pageScale="1" pageWidth="827" pageHeight="1169" math="0" shadow="0">
      <root>
        <mxCell id="0" />
        <mxCell id="1" parent="0" />
        <mxCell id="7vSpHYfmrR4QceUChI8V-10" style="edgeStyle=orthogonalEdgeStyle;rounded=0;orthogonalLoop=1;jettySize=auto;html=1;exitX=1;exitY=0.5;exitDx=0;exitDy=0;exitPerimeter=0;enumerate=1;" edge="1" parent="1" source="7vSpHYfmrR4QceUChI8V-1" target="7vSpHYfmrR4QceUChI8V-2">
          <mxGeometry relative="1" as="geometry" />
        </mxCell>
        <mxCell id="7vSpHYfmrR4QceUChI8V-1" value="" style="sketch=0;points=[[0,0,0],[0.25,0,0],[0.5,0,0],[0.75,0,0],[1,0,0],[0,1,0],[0.25,1,0],[0.5,1,0],[0.75,1,0],[1,1,0],[0,0.25,0],[0,0.5,0],[0,0.75,0],[1,0.25,0],[1,0.5,0],[1,0.75,0]];outlineConnect=0;fontColor=#232F3E;fillColor=#E7157B;strokeColor=#ffffff;dashed=0;verticalLabelPosition=bottom;verticalAlign=top;align=center;html=1;fontSize=12;fontStyle=0;aspect=fixed;shape=mxgraph.aws4.resourceIcon;resIcon=mxgraph.aws4.eventbridge;" vertex="1" parent="1">
          <mxGeometry x="280" y="281" width="78" height="78" as="geometry" />
        </mxCell>
        <mxCell id="7vSpHYfmrR4QceUChI8V-28" value="" style="edgeStyle=orthogonalEdgeStyle;rounded=0;orthogonalLoop=1;jettySize=auto;html=1;startArrow=classic;startFill=1;enumerate=1;enumerateValue=%E2%88%9E;" edge="1" parent="1" source="7vSpHYfmrR4QceUChI8V-2" target="7vSpHYfmrR4QceUChI8V-27">
          <mxGeometry relative="1" as="geometry" />
        </mxCell>
        <mxCell id="7vSpHYfmrR4QceUChI8V-31" value="" style="edgeStyle=orthogonalEdgeStyle;rounded=0;orthogonalLoop=1;jettySize=auto;html=1;" edge="1" parent="1" source="7vSpHYfmrR4QceUChI8V-2" target="7vSpHYfmrR4QceUChI8V-27">
          <mxGeometry relative="1" as="geometry" />
        </mxCell>
        <mxCell id="7vSpHYfmrR4QceUChI8V-2" value="" style="sketch=0;points=[[0,0,0],[0.25,0,0],[0.5,0,0],[0.75,0,0],[1,0,0],[0,1,0],[0.25,1,0],[0.5,1,0],[0.75,1,0],[1,1,0],[0,0.25,0],[0,0.5,0],[0,0.75,0],[1,0.25,0],[1,0.5,0],[1,0.75,0]];outlineConnect=0;fontColor=#232F3E;fillColor=#ED7100;strokeColor=#ffffff;dashed=0;verticalLabelPosition=bottom;verticalAlign=top;align=center;html=1;fontSize=12;fontStyle=0;aspect=fixed;shape=mxgraph.aws4.resourceIcon;resIcon=mxgraph.aws4.lambda;" vertex="1" parent="1">
          <mxGeometry x="438" y="280" width="80" height="80" as="geometry" />
        </mxCell>
        <mxCell id="7vSpHYfmrR4QceUChI8V-3" value="" style="sketch=0;outlineConnect=0;fontColor=#232F3E;gradientColor=none;fillColor=#E7157B;strokeColor=none;dashed=0;verticalLabelPosition=bottom;verticalAlign=top;align=center;html=1;fontSize=12;fontStyle=0;aspect=fixed;pointerEvents=1;shape=mxgraph.aws4.parameter_store;" vertex="1" parent="1">
          <mxGeometry x="599.08" y="122" width="76.92" height="80" as="geometry" />
        </mxCell>
        <mxCell id="7vSpHYfmrR4QceUChI8V-5" value="" style="dashed=0;outlineConnect=0;html=1;align=center;labelPosition=center;verticalLabelPosition=bottom;verticalAlign=top;shape=mxgraph.webicons.wordpress_2;fillColor=#35E2EE;gradientColor=#0E4D99" vertex="1" parent="1">
          <mxGeometry x="80" y="120" width="80" height="80" as="geometry" />
        </mxCell>
        <mxCell id="7vSpHYfmrR4QceUChI8V-6" value="" style="sketch=0;points=[[0,0,0],[0.25,0,0],[0.5,0,0],[0.75,0,0],[1,0,0],[0,1,0],[0.25,1,0],[0.5,1,0],[0.75,1,0],[1,1,0],[0,0.25,0],[0,0.5,0],[0,0.75,0],[1,0.25,0],[1,0.5,0],[1,0.75,0]];points=[[0,0,0],[0.25,0,0],[0.5,0,0],[0.75,0,0],[1,0,0],[0,1,0],[0.25,1,0],[0.5,1,0],[0.75,1,0],[1,1,0],[0,0.25,0],[0,0.5,0],[0,0.75,0],[1,0.25,0],[1,0.5,0],[1,0.75,0]];outlineConnect=0;fontColor=#232F3E;fillColor=#E7157B;strokeColor=#ffffff;dashed=0;verticalLabelPosition=bottom;verticalAlign=top;align=center;html=1;fontSize=12;fontStyle=0;aspect=fixed;shape=mxgraph.aws4.resourceIcon;resIcon=mxgraph.aws4.cloudwatch_2;" vertex="1" parent="1">
          <mxGeometry x="439" y="122" width="78" height="78" as="geometry" />
        </mxCell>
        <mxCell id="7vSpHYfmrR4QceUChI8V-15" value="" style="edgeStyle=orthogonalEdgeStyle;rounded=0;orthogonalLoop=1;jettySize=auto;html=1;startArrow=classic;startFill=1;endArrow=none;endFill=0;enumerate=1;enumerateValue=4;fillColor=#d5e8d4;strokeColor=#82b366;" edge="1" parent="1" source="7vSpHYfmrR4QceUChI8V-7" target="7vSpHYfmrR4QceUChI8V-2">
          <mxGeometry relative="1" as="geometry" />
        </mxCell>
        <mxCell id="7vSpHYfmrR4QceUChI8V-7" value="" style="sketch=0;points=[[0,0,0],[0.25,0,0],[0.5,0,0],[0.75,0,0],[1,0,0],[0,1,0],[0.25,1,0],[0.5,1,0],[0.75,1,0],[1,1,0],[0,0.25,0],[0,0.5,0],[0,0.75,0],[1,0.25,0],[1,0.5,0],[1,0.75,0]];outlineConnect=0;fontColor=#232F3E;fillColor=#7AA116;strokeColor=#ffffff;dashed=0;verticalLabelPosition=bottom;verticalAlign=top;align=center;html=1;fontSize=12;fontStyle=0;aspect=fixed;shape=mxgraph.aws4.resourceIcon;resIcon=mxgraph.aws4.s3;" vertex="1" parent="1">
          <mxGeometry x="598" y="281" width="78" height="78" as="geometry" />
        </mxCell>
        <mxCell id="7vSpHYfmrR4QceUChI8V-18" style="edgeStyle=orthogonalEdgeStyle;rounded=0;orthogonalLoop=1;jettySize=auto;html=1;exitX=1;exitY=0.5;exitDx=0;exitDy=0;exitPerimeter=0;fillColor=#f8cecc;strokeColor=#FF0000;enumerate=0;enumerateValue=6;" edge="1" parent="1" source="7vSpHYfmrR4QceUChI8V-8" target="7vSpHYfmrR4QceUChI8V-9">
          <mxGeometry relative="1" as="geometry" />
        </mxCell>
        <mxCell id="7vSpHYfmrR4QceUChI8V-8" value="" style="sketch=0;points=[[0,0,0],[0.25,0,0],[0.5,0,0],[0.75,0,0],[1,0,0],[0,1,0],[0.25,1,0],[0.5,1,0],[0.75,1,0],[1,1,0],[0,0.25,0],[0,0.5,0],[0,0.75,0],[1,0.25,0],[1,0.5,0],[1,0.75,0]];outlineConnect=0;fontColor=#232F3E;fillColor=#E7157B;strokeColor=#ffffff;dashed=0;verticalLabelPosition=bottom;verticalAlign=top;align=center;html=1;fontSize=12;fontStyle=0;aspect=fixed;shape=mxgraph.aws4.resourceIcon;resIcon=mxgraph.aws4.sns;" vertex="1" parent="1">
          <mxGeometry x="599.08" y="442" width="78" height="78" as="geometry" />
        </mxCell>
        <mxCell id="7vSpHYfmrR4QceUChI8V-9" value="" style="sketch=0;outlineConnect=0;fontColor=#232F3E;gradientColor=none;fillColor=#232F3D;strokeColor=none;dashed=0;verticalLabelPosition=bottom;verticalAlign=top;align=center;html=1;fontSize=12;fontStyle=0;aspect=fixed;pointerEvents=1;shape=mxgraph.aws4.user;" vertex="1" parent="1">
          <mxGeometry x="760" y="442" width="78" height="78" as="geometry" />
        </mxCell>
        <mxCell id="7vSpHYfmrR4QceUChI8V-13" style="edgeStyle=orthogonalEdgeStyle;rounded=0;orthogonalLoop=1;jettySize=auto;html=1;entryX=1;entryY=0.25;entryDx=0;entryDy=0;entryPerimeter=0;startArrow=classic;startFill=1;enumerate=1;" edge="1" parent="1" source="7vSpHYfmrR4QceUChI8V-3" target="7vSpHYfmrR4QceUChI8V-2">
          <mxGeometry relative="1" as="geometry">
            <Array as="points">
              <mxPoint x="550" y="162" />
              <mxPoint x="550" y="300" />
            </Array>
          </mxGeometry>
        </mxCell>
        <mxCell id="7vSpHYfmrR4QceUChI8V-16" style="edgeStyle=orthogonalEdgeStyle;rounded=0;orthogonalLoop=1;jettySize=auto;html=1;exitX=0;exitY=0.5;exitDx=0;exitDy=0;exitPerimeter=0;entryX=1;entryY=0.75;entryDx=0;entryDy=0;entryPerimeter=0;endArrow=none;endFill=0;startArrow=classic;startFill=1;fillColor=#f8cecc;strokeColor=#FF0000;enumerate=1;enumerateValue=F;" edge="1" parent="1" source="7vSpHYfmrR4QceUChI8V-8" target="7vSpHYfmrR4QceUChI8V-2">
          <mxGeometry relative="1" as="geometry">
            <Array as="points">
              <mxPoint x="550" y="481" />
              <mxPoint x="550" y="340" />
            </Array>
          </mxGeometry>
        </mxCell>
        <mxCell id="7vSpHYfmrR4QceUChI8V-17" style="edgeStyle=orthogonalEdgeStyle;rounded=0;orthogonalLoop=1;jettySize=auto;html=1;entryX=0;entryY=0.25;entryDx=0;entryDy=0;entryPerimeter=0;startArrow=classic;startFill=1;enumerate=1;" edge="1" parent="1" source="7vSpHYfmrR4QceUChI8V-5" target="7vSpHYfmrR4QceUChI8V-2">
          <mxGeometry relative="1" as="geometry">
            <Array as="points">
              <mxPoint x="420" y="160" />
              <mxPoint x="420" y="300" />
            </Array>
          </mxGeometry>
        </mxCell>
        <mxCell id="7vSpHYfmrR4QceUChI8V-20" value="Server contents" style="points=[[0,0],[0.25,0],[0.5,0],[0.75,0],[1,0],[1,0.25],[1,0.5],[1,0.75],[1,1],[0.75,1],[0.5,1],[0.25,1],[0,1],[0,0.75],[0,0.5],[0,0.25]];outlineConnect=0;gradientColor=none;html=1;whiteSpace=wrap;fontSize=12;fontStyle=0;container=1;pointerEvents=0;collapsible=0;recursiveResize=0;shape=mxgraph.aws4.group;grIcon=mxgraph.aws4.group_on_premise;strokeColor=#7D8998;fillColor=none;verticalAlign=top;align=left;spacingLeft=30;fontColor=#5A6C86;dashed=0;" vertex="1" parent="1">
          <mxGeometry x="40" y="80" width="160" height="160" as="geometry" />
        </mxCell>
        <mxCell id="7vSpHYfmrR4QceUChI8V-21" value="WordPress API" style="text;html=1;strokeColor=none;fillColor=none;align=center;verticalAlign=middle;whiteSpace=wrap;rounded=0;" vertex="1" parent="7vSpHYfmrR4QceUChI8V-20">
          <mxGeometry x="40" y="120" width="78" height="40" as="geometry" />
        </mxCell>
        <mxCell id="7vSpHYfmrR4QceUChI8V-22" value="AWS Cloud" style="points=[[0,0],[0.25,0],[0.5,0],[0.75,0],[1,0],[1,0.25],[1,0.5],[1,0.75],[1,1],[0.75,1],[0.5,1],[0.25,1],[0,1],[0,0.75],[0,0.5],[0,0.25]];outlineConnect=0;gradientColor=none;html=1;whiteSpace=wrap;fontSize=12;fontStyle=0;container=1;pointerEvents=0;collapsible=0;recursiveResize=0;shape=mxgraph.aws4.group;grIcon=mxgraph.aws4.group_aws_cloud_alt;strokeColor=#232F3E;fillColor=none;verticalAlign=top;align=left;spacingLeft=30;fontColor=#232F3E;dashed=0;" vertex="1" parent="1">
          <mxGeometry x="238" y="80" width="482" height="480" as="geometry" />
        </mxCell>
        <mxCell id="7vSpHYfmrR4QceUChI8V-23" value="Lambda Function" style="text;html=1;strokeColor=none;fillColor=none;align=center;verticalAlign=middle;whiteSpace=wrap;rounded=0;" vertex="1" parent="7vSpHYfmrR4QceUChI8V-22">
          <mxGeometry x="201" y="279" width="78" height="40" as="geometry" />
        </mxCell>
        <mxCell id="7vSpHYfmrR4QceUChI8V-24" value="Parameter Store" style="text;html=1;strokeColor=none;fillColor=none;align=center;verticalAlign=middle;whiteSpace=wrap;rounded=0;" vertex="1" parent="7vSpHYfmrR4QceUChI8V-22">
          <mxGeometry x="361.08000000000004" y="122" width="78" height="40" as="geometry" />
        </mxCell>
        <mxCell id="7vSpHYfmrR4QceUChI8V-25" value="S3 Bucket" style="text;html=1;strokeColor=none;fillColor=none;align=center;verticalAlign=middle;whiteSpace=wrap;rounded=0;" vertex="1" parent="7vSpHYfmrR4QceUChI8V-22">
          <mxGeometry x="361.08000000000004" y="279" width="78" height="40" as="geometry" />
        </mxCell>
        <mxCell id="7vSpHYfmrR4QceUChI8V-26" value="SNS Topic" style="text;html=1;strokeColor=none;fillColor=none;align=center;verticalAlign=middle;whiteSpace=wrap;rounded=0;" vertex="1" parent="7vSpHYfmrR4QceUChI8V-22">
          <mxGeometry x="361.08000000000004" y="440" width="78" height="40" as="geometry" />
        </mxCell>
        <mxCell id="7vSpHYfmrR4QceUChI8V-27" value="CloudWatch Log Group" style="text;html=1;strokeColor=none;fillColor=none;align=center;verticalAlign=middle;whiteSpace=wrap;rounded=0;" vertex="1" parent="7vSpHYfmrR4QceUChI8V-22">
          <mxGeometry x="201" y="120" width="78" height="40" as="geometry" />
        </mxCell>
        <mxCell id="7vSpHYfmrR4QceUChI8V-29" value="EventBridge Schedule" style="text;html=1;strokeColor=none;fillColor=none;align=center;verticalAlign=middle;whiteSpace=wrap;rounded=0;" vertex="1" parent="7vSpHYfmrR4QceUChI8V-22">
          <mxGeometry x="42" y="280" width="78" height="40" as="geometry" />
        </mxCell>
        <mxCell id="7vSpHYfmrR4QceUChI8V-30" value="User" style="text;html=1;strokeColor=none;fillColor=none;align=center;verticalAlign=middle;whiteSpace=wrap;rounded=0;" vertex="1" parent="1">
          <mxGeometry x="760" y="520" width="78" height="40" as="geometry" />
        </mxCell>
      </root>
    </mxGraphModel>
  </diagram>
</mxfile>
